<svg width="1920" height="240" viewBox="0 0 1920 240" xmlns="http://www.w3.org/2000/svg"><rect width="1920" height="240" fill="#5374b0"/><path d="M 0,240 C 0,240 0,48 0,48 C 78.27724594992637,40.25625920471281 156.55449189985274,32.512518409425624 253,30 C 349.44550810014726,27.48748159057438 464.05927835051546,30.206185567010316 568,35 C 671.9407216494845,39.793814432989684 765.2083946980855,46.662739322533135 830,48 C 894.7916053019145,49.337260677466865 931.1071428571429,45.142857142857146 1041,45 C 1150.892857142857,44.857142857142854 1334.363033873343,48.765832106038296 1435,51 C 1535.636966126657,53.234167893961704 1553.4407216494844,53.79381443298969 1620,51 C 1686.5592783505156,48.20618556701031 1801.8740795287185,42.058910162002945 1860,41 C 1918.1259204712815,39.941089837997055 1919.0629602356407,43.97054491899853 1920,48 C 1920,48 1920,240 1920,240 Z" fill="#0b121e" opacity="0.12"/><path d="M 0,240 C 0,240 0,96 0,96 C 87.83357879234168,106.03626656848306 175.66715758468337,116.07253313696613 263,109 C 350.33284241531663,101.92746686303387 437.1649484536082,77.74613402061856 520,78 C 602.8350515463918,78.25386597938144 681.6730486008838,102.94293078055965 757,112 C 832.3269513991162,121.05706921944035 904.1428571428571,114.48214285714285 1040,113 C 1175.857142857143,111.51785714285715 1375.7555228276879,115.12849779086893 1459,113 C 1542.2444771723121,110.87150220913107 1508.835051546392,103.00386597938146 1589,101 C 1669.164948453608,98.99613402061854 1862.9042709867454,102.85603829160529 1937,103 C 2011.0957290132546,103.14396170839471 1965.5478645066273,99.57198085419736 1920,96 C 1920,96 1920,240 1920,240 Z" fill="#0b121e" opacity="0.24"/><path d="M 0,240 C 0,240 0,144 0,144 C 93.51233431516934,134.50625920471282 187.02466863033868,125.01251840942564 278,127 C 368.9753313696613,128.98748159057436 457.41365979381453,142.4561855670103 560,149 C 662.5863402061855,155.5438144329897 779.3206921944035,155.16273932253313 869,154 C 958.6793078055965,152.83726067746687 1021.3035714285713,150.89285714285714 1097,149 C 1172.6964285714287,147.10714285714286 1261.4650220913106,145.2658321060383 1363,142 C 1464.5349779086894,138.7341678939617 1578.836340206186,134.04381443298968 1684,131 C 1789.163659793814,127.95618556701031 1885.1896170839468,126.55891016200295 1923,129 C 1960.8103829160532,131.44108983799705 1940.4051914580266,137.72054491899854 1920,144 C 1920,144 1920,240 1920,240 Z" fill="#0b121e" opacity="0.36"/><path d="M 0,240 C 0,240 0,192 0,192 C 95.8668998527246,203.18078055964654 191.7337997054492,214.36156111929307 269,207 C 346.2662002945508,199.63843888070693 404.9317010309278,173.73453608247425 480,175 C 555.0682989690722,176.26546391752575 646.5393961708395,204.70029455081004 751,205 C 855.4606038291605,205.29970544918996 972.9107142857142,177.46428571428572 1085,176 C 1197.0892857142858,174.53571428571428 1303.8177466863033,199.44256259204715 1408,203 C 1512.1822533136967,206.55743740795285 1613.8182989690722,188.76546391752578 1705,185 C 1796.1817010309278,181.23453608247422 1876.909057437408,191.4955817378498 1911,195 C 1945.090942562592,198.5044182621502 1932.5454712812962,195.25220913107512 1920,192 C 1920,192 1920,240 1920,240 Z" fill="#0b121e" opacity="0.48"/></svg>