<svg width="1920" height="240" viewBox="0 0 1920 240" xmlns="http://www.w3.org/2000/svg"><path d="M1920,240C1601.3333333333333,257.1666666666667,274.6666666666667,262.8333333333333,0,240C-274.6666666666667,217.16666666666666,181.83333333333331,116.16666666666667,272,103C362.1666666666667,89.83333333333333,450.6666666666667,148.16666666666666,541,161C631.3333333333334,173.83333333333334,722.8333333333334,182,814,180C905.1666666666666,178,996.3333333333334,166.33333333333334,1088,149C1179.6666666666667,131.66666666666666,1271.1666666666667,69.33333333333333,1364,76C1456.8333333333333,82.66666666666667,1553.6666666666667,178.83333333333334,1645,189C1736.3333333333333,199.16666666666666,1866.1666666666667,128.5,1912,137C1957.8333333333333,145.5,2238.6666666666665,222.83333333333334,1920,240C1601.3333333333333,257.1666666666667,274.6666666666667,262.8333333333333,0,240" fill="#274295"/></svg>