<svg width="1920" height="240" viewBox="0 0 1920 240" xmlns="http://www.w3.org/2000/svg"><rect width="1920" height="240" fill="#add8e6"/><path d="M 0,240 C 0,240 0,60 0,60 C 101.7404270986745,62.89340942562592 203.480854197349,65.78681885125184 276,71 C 348.519145802651,76.21318114874816 391.8170103092783,83.74613402061856 463,74 C 534.1829896907217,64.25386597938144 633.2511045655376,37.228645066273934 726,40 C 818.7488954344624,42.771354933726066 905.1785714285713,75.33928571428572 984,78 C 1062.8214285714287,80.66071428571428 1134.0346097201768,53.414212076583205 1203,43 C 1271.9653902798232,32.585787923416795 1338.6829896907216,39.003865979381445 1417,43 C 1495.3170103092784,46.996134020618555 1585.2334315169367,48.57032400589102 1671,51 C 1756.7665684830633,53.42967599410898 1838.3832842415318,56.71483799705449 1920,60 C 1920,60 1920,240 1920,240 Z" fill="#274295" opacity="0.15"/><path d="M 0,240 C 0,240 0,120 0,120 C 96.34278350515464,129.87518409425627 192.68556701030928,139.75036818851254 274,133 C 355.3144329896907,126.24963181148748 421.6005154639174,102.87371134020616 493,104 C 564.3994845360826,105.12628865979384 640.9123711340205,130.75478645066275 726,137 C 811.0876288659795,143.24521354933725 904.75,130.10714285714286 975,130 C 1045.25,129.89285714285714 1092.0876288659795,142.81664212076583 1172,139 C 1251.9123711340205,135.18335787923417 1364.8994845360826,114.6262886597938 1452,113 C 1539.1005154639174,111.3737113402062 1600.3144329896907,128.6782032400589 1674,133 C 1747.6855670103093,137.3217967599411 1833.8427835051548,128.66089837997055 1920,120 C 1920,120 1920,240 1920,240 Z" fill="#274295" opacity="0.3"/><path d="M 0,240 C 0,240 0,180 0,180 C 87.20618556701032,170.4508468335788 174.41237113402065,160.9016936671576 258,157 C 341.58762886597935,153.0983063328424 421.5567010309278,154.84407216494844 506,165 C 590.4432989690722,175.15592783505156 679.360824742268,193.7220176730486 763,195 C 846.639175257732,196.2779823269514 925,180.26785714285714 996,169 C 1067,157.73214285714286 1130.639175257732,151.20655375552283 1202,160 C 1273.360824742268,168.79344624447717 1352.4432989690722,192.90592783505156 1425,197 C 1497.5567010309278,201.09407216494844 1563.5876288659792,185.169734904271 1645,179 C 1726.4123711340208,172.830265095729 1823.2061855670104,176.41513254786452 1920,180 C 1920,180 1920,240 1920,240 Z" fill="#274295" opacity="0.44999999999999996"/></svg>